<svg width="49" height="48" viewBox="0 0 49 48" fill="none" xmlns="http://www.w3.org/2000/svg">
<path d="M47.895 6.07167C47.8758 6.0853 47.8577 6.09388 47.8405 6.09741C47.8279 6.09994 47.8168 6.09691 47.8072 6.08833C47.8016 6.08328 47.7986 6.07748 47.7981 6.07091C47.7941 6.03003 47.7847 6.02877 47.7701 6.06713C47.7529 6.11256 47.7554 6.15622 47.7777 6.19812C47.7903 6.22234 47.7918 6.24733 47.7822 6.27308C47.7307 6.40785 47.6383 6.48558 47.5051 6.50628C47.4824 6.50931 47.4622 6.51814 47.4445 6.53278C47.3844 6.58124 47.3171 6.62717 47.2423 6.67059C47.1575 6.72056 47.0755 6.77482 46.9963 6.83337C46.8746 6.92272 46.7411 6.98859 46.5957 7.03099C46.5018 7.05825 46.3186 7.1741 46.2505 7.24451C46.2182 7.27732 46.1795 7.29499 46.1346 7.29751C46.1069 7.29903 46.0867 7.31215 46.074 7.33689C46.0392 7.40352 45.99 7.46232 45.9264 7.5133C45.9113 7.52542 45.9095 7.5393 45.9211 7.55495C45.9262 7.56151 45.9294 7.56883 45.9309 7.57691C45.937 7.60164 45.9292 7.62107 45.9075 7.63521L45.7636 7.72909C45.7419 7.74323 45.724 7.76115 45.7099 7.78285L45.6561 7.86766C45.644 7.88734 45.6281 7.90274 45.6084 7.91384C45.4479 8.00571 45.2722 8.09379 45.0814 8.17809C44.9199 8.24926 44.7354 8.29343 44.5279 8.31059C44.169 8.34088 43.8316 8.3694 43.5156 8.39615C43.187 8.42391 42.8538 8.44158 42.5162 8.44915C41.9266 8.46177 41.3216 8.47969 40.7012 8.50291C40.6432 8.50544 40.5824 8.50443 40.5188 8.49988C40.4728 8.49635 40.4145 8.49509 40.3439 8.4961C40.0203 8.50064 39.6965 8.50518 39.3724 8.50973C39.065 8.51427 38.742 8.5067 38.4033 8.48701C37.9959 8.46379 37.5865 8.46657 37.1751 8.49534C37.0399 8.50493 36.9021 8.50771 36.7617 8.50367C36.6133 8.49913 36.4697 8.50266 36.3309 8.51427C36.3067 8.51629 36.2832 8.51301 36.2605 8.50443C36.2226 8.48979 36.1833 8.48196 36.1424 8.48095C35.7037 8.46985 35.2368 8.47591 34.7416 8.49913C34.2964 8.51982 33.8088 8.46253 33.2788 8.32725C33.09 8.27879 32.8926 8.22958 32.6867 8.17961C32.61 8.16143 32.5406 8.13317 32.4785 8.0948C32.4578 8.08218 32.4356 8.0736 32.4118 8.06906C32.3043 8.05089 32.2188 7.98653 32.1158 7.9517C31.9613 7.8987 31.7832 7.81642 31.5812 7.70486C31.4419 7.62814 31.2526 7.55823 31.0134 7.49513C31.3367 6.57139 31.2928 5.65372 31.2307 4.69288C31.2266 4.6313 31.1938 4.60051 31.1322 4.60051C30.4538 4.59546 29.7047 4.62852 28.885 4.6997C28.3633 4.74513 28.0453 4.56946 27.6274 4.32566C27.1397 4.04172 26.6408 3.94329 26.0025 3.93648C25.2403 3.9279 24.5162 3.93572 23.8302 3.95995C23.8239 3.96015 23.8179 3.96271 23.8136 3.96709C23.8092 3.97147 23.8067 3.97732 23.8067 3.98342L23.7969 6.99389L23.7 6.51158C23.6949 6.48735 23.6815 6.46943 23.6598 6.45782C23.5967 6.4245 23.5304 6.40356 23.4607 6.39498C23.437 6.39195 23.415 6.38387 23.3948 6.37075C23.363 6.34955 23.3274 6.33516 23.2881 6.32759C23.2747 6.32498 23.2621 6.31931 23.2513 6.31102C23.2405 6.30274 23.2319 6.29208 23.226 6.27989L23.1298 6.07773C23.1187 6.054 23.101 6.03684 23.0768 6.02624C22.9466 5.96642 22.8201 5.98687 22.7141 6.08227C22.6833 6.11003 22.6508 6.13628 22.6165 6.16101C22.5953 6.17666 22.5789 6.19635 22.5672 6.22007C22.5481 6.26146 22.5168 6.28796 22.4734 6.29957C22.4486 6.30664 22.4287 6.32027 22.4135 6.34046C22.3464 6.42981 22.2732 6.4982 22.194 6.54565C22.1733 6.55776 22.1579 6.57468 22.1478 6.59638C22.1246 6.64888 22.0887 6.68446 22.0403 6.70314C21.9428 6.741 21.8613 6.78921 21.7957 6.84776C21.7785 6.8629 21.7589 6.87047 21.7366 6.87047C21.6428 6.87098 21.5587 6.90227 21.4845 6.96436C21.4143 7.02342 21.3404 7.07592 21.2627 7.12185C21.1087 7.21321 20.9626 7.33814 20.8243 7.49664C20.7637 7.5658 20.6852 7.613 20.5888 7.63823C20.5237 7.6554 20.4634 7.68492 20.4078 7.72682C20.2029 7.8833 19.9871 7.99687 19.7605 8.06754C19.7534 8.07007 19.7478 8.07436 19.7438 8.08042C19.7398 8.08647 19.7355 8.09203 19.7309 8.09707C19.7254 8.10414 19.7178 8.10919 19.7082 8.11222C19.5043 8.18086 19.284 8.22276 19.0472 8.2379C18.9644 8.24346 18.8928 8.24068 18.8322 8.22958C18.7645 8.21746 18.6974 8.20989 18.6308 8.20686C18.3067 8.19172 18.0263 8.19323 17.7896 8.2114C17.4887 8.23513 17.149 8.23538 16.7704 8.21216C16.6998 8.20812 16.6296 8.20737 16.5599 8.20989C16.3812 8.21746 16.2003 8.19172 16.0345 8.2114C15.9123 8.22604 15.7844 8.24346 15.6506 8.26365C15.5332 8.28106 15.4234 8.26516 15.3114 8.28258C15.2286 8.2952 15.1451 8.30201 15.0608 8.30302C14.505 8.30958 13.9417 8.32523 13.3708 8.34996C13.344 8.35097 13.3178 8.34795 13.292 8.34088C13.2678 8.33432 13.2433 8.33406 13.2186 8.34012C13.0967 8.37041 12.9952 8.32952 12.8779 8.33861C12.7537 8.3487 12.6265 8.34946 12.4963 8.34088C12.3691 8.3323 12.2434 8.32952 12.1192 8.33255C11.5518 8.34618 10.9923 8.34189 10.4406 8.31968C10.3588 8.31665 10.2929 8.34012 10.2127 8.33028C10.1602 8.32422 10.1059 8.32069 10.0499 8.31968C9.37853 8.31059 8.7251 8.30883 8.08959 8.31438C7.66709 8.31791 7.23147 8.32624 6.78273 8.33936C6.68228 8.34239 6.56467 8.33886 6.42989 8.32876C6.32086 8.32119 6.2035 8.31842 6.07781 8.32043C5.99049 8.32195 5.90316 8.31867 5.81583 8.31059C5.72599 8.30302 5.64017 8.30151 5.5584 8.30605C5.27674 8.32321 4.99457 8.31993 4.7119 8.29621C4.63467 8.29015 4.58091 8.32119 4.51276 8.31286C4.37698 8.29721 4.24675 8.29394 4.12207 8.30302C4.00395 8.3116 3.88634 8.30681 3.76923 8.28863C3.48252 8.24573 3.18925 8.1685 2.88941 8.05694C2.78038 8.01656 2.65595 7.9893 2.51613 7.97517C2.45657 7.96911 2.40129 7.94917 2.35031 7.91535C2.3281 7.90021 2.30337 7.8939 2.27611 7.89642C2.212 7.90299 2.15522 7.8833 2.10575 7.83737C2.09212 7.82525 2.07647 7.81995 2.05881 7.82147C2.05174 7.82197 2.04442 7.82197 2.03685 7.82147C2.02322 7.81995 2.00934 7.81516 1.9952 7.80708C1.91949 7.76165 1.83847 7.71471 1.75216 7.66625C1.67593 7.62385 1.59441 7.59053 1.50759 7.5663C1.40866 7.53905 1.32411 7.49993 1.25394 7.44894C1.15248 7.37575 1.05153 7.29625 0.95108 7.21044C0.947042 7.2069 0.944517 7.20236 0.943508 7.19681C0.941993 7.18974 0.941993 7.18293 0.943508 7.17637C0.953098 7.13346 0.946537 7.13068 0.923822 7.16804C0.915241 7.18217 0.911707 7.19706 0.913222 7.21271C0.914231 7.22078 0.911455 7.2276 0.904893 7.23315C0.902874 7.23467 0.900603 7.23492 0.898079 7.23391C0.877383 7.22684 0.869054 7.23441 0.873092 7.25662C0.880159 7.29802 0.858454 7.31846 0.807976 7.31796C1.2128 5.20851 2.19711 3.46502 3.7609 2.08749C5.34488 0.692045 7.4354 -0.00075654 9.56756 6.19945e-07C19.5111 0.00101017 29.4425 0.00126214 39.3618 0.000757364C40.1735 2.04073e-07 41.1048 0.0711729 41.8741 0.285449C43.1517 0.640305 44.2579 1.21802 45.1927 2.01859C46.444 3.08972 47.3448 4.44075 47.895 6.07167Z" fill="#00CBFF"/>
<path d="M26.1486 7.49134C25.821 7.75736 25.5924 8.06603 25.4626 8.41735C25.4 8.58645 25.368 8.5809 25.3665 8.40069L25.3483 5.61661C25.3483 5.58582 25.3637 5.56891 25.3945 5.56588C25.8662 5.52273 26.4734 5.46367 26.8679 5.73927C27.2669 6.01715 27.6607 6.24809 28.1559 6.28973C28.6647 6.33314 29.1629 6.28594 29.6505 6.14814C29.6904 6.13704 29.7063 6.15168 29.6982 6.19206C29.6376 6.4818 29.5397 6.73948 29.4044 6.96512C29.0122 7.61855 28.1172 7.83131 27.4282 7.52769C27.0186 7.34597 26.5537 7.16274 26.1486 7.49134Z" fill="#002056"/>
<path d="M23.7969 6.99389L23.7961 10.2928C23.7961 10.3175 23.7863 10.3412 23.7688 10.3587C23.7514 10.3762 23.7277 10.386 23.703 10.386L20.8258 10.389C20.8116 10.389 20.7979 10.3945 20.7878 10.4044C20.7776 10.4143 20.7717 10.4278 20.7713 10.442C20.7672 10.5702 20.7665 10.6914 20.769 10.8054C20.7877 11.5949 20.8051 12.4154 20.8212 13.267C20.8216 13.2894 20.8132 13.3111 20.7978 13.3274C20.7824 13.3437 20.7611 13.3532 20.7387 13.354L20.1883 13.379L20.3215 13.3253C20.3397 13.3177 20.3417 13.3071 20.3276 13.2935L20.3086 13.2738C20.3062 13.2714 20.3049 13.2681 20.3049 13.2647C20.3049 13.2613 20.3062 13.258 20.3086 13.2556C20.3495 13.2127 20.3644 13.1597 20.3533 13.0966C20.3503 13.0794 20.3521 13.0628 20.3586 13.0466C20.4202 12.8922 20.4548 12.7271 20.4623 12.5514C20.4639 12.5207 20.4512 12.4974 20.4245 12.4818C20.4033 12.4687 20.3871 12.451 20.376 12.4288C20.3584 12.3945 20.3364 12.3634 20.3102 12.3357C20.2047 12.2231 20.0797 12.1565 19.9354 12.1358C19.7844 12.1141 19.63 12.0871 19.472 12.0547C19.3039 12.0204 19.1335 11.9987 18.9609 11.9896C18.4183 11.9609 17.8983 12.004 17.4011 12.1191C17.2951 12.1438 17.1884 12.159 17.0809 12.1645C16.9779 12.1701 16.8769 12.1784 16.778 12.1895C16.6246 12.2057 16.4729 12.2168 16.3229 12.2228C16.016 12.2344 15.7258 12.2468 15.4522 12.2599C15.3028 12.2665 15.1519 12.2731 14.9994 12.2796C14.6264 12.2948 14.2418 12.319 13.8455 12.3523C13.7153 12.3629 13.5891 12.3768 13.4669 12.394C13.3322 12.4131 13.204 12.4263 13.0823 12.4333C12.839 12.4465 12.5826 12.4512 12.313 12.4477C12.3004 12.4477 12.2898 12.4523 12.2812 12.4613L12.2638 12.478C12.2449 12.497 12.2194 12.5081 12.1926 12.509C12.125 12.5116 12.0564 12.5176 11.9867 12.5272C11.911 12.5378 11.8686 12.5832 11.7883 12.5757C11.7449 12.5711 11.702 12.5719 11.6596 12.5779C11.5304 12.5971 11.3878 12.6118 11.2318 12.6219C10.6816 12.6577 10.0963 12.6895 9.47595 12.7173C9.39771 12.7208 9.31947 12.719 9.24123 12.712C9.1645 12.7054 9.08803 12.7059 9.01181 12.7135C8.88763 12.7261 8.76775 12.7319 8.65216 12.7309C8.54262 12.7304 8.43384 12.738 8.32582 12.7536C8.20114 12.7713 8.09337 12.7786 8.00251 12.7756C7.87228 12.7715 7.74255 12.77 7.61333 12.771C7.54115 12.772 7.47225 12.7642 7.40663 12.7476C7.3819 12.741 7.35741 12.7423 7.33318 12.7513C7.28523 12.77 7.23854 12.7698 7.19311 12.7506C7.1714 12.7415 7.14919 12.7397 7.12648 12.7453C7.08458 12.7549 7.02704 12.7576 6.95385 12.7536C6.72064 12.74 6.39759 12.7493 5.98468 12.7816C5.89483 12.7887 5.82492 12.799 5.77495 12.8127C5.77141 12.8137 5.76788 12.8134 5.76435 12.8119C5.75829 12.8089 5.75249 12.8056 5.74693 12.8021C5.7328 12.7935 5.71766 12.79 5.7015 12.7915C5.5213 12.8132 5.40066 12.8215 5.33958 12.8165C5.23762 12.8074 5.12934 12.8046 5.01476 12.8081C4.8704 12.8122 4.76187 12.8089 4.68918 12.7983C4.41862 12.7579 4.221 12.7405 4.09632 12.746C3.93025 12.7541 3.79624 12.745 3.69427 12.7188C3.61098 12.6976 3.52416 12.6867 3.43381 12.6862C3.295 12.6852 3.15568 12.6643 3.01586 12.6234C2.99254 12.6161 2.96688 12.618 2.94393 12.6287C2.92929 12.6352 2.9144 12.636 2.89925 12.6309C2.7771 12.5916 2.65065 12.5666 2.51992 12.556C2.4972 12.5545 2.47625 12.5474 2.45707 12.5348C2.40357 12.501 2.34552 12.4977 2.28292 12.5249C2.25769 12.5355 2.23169 12.5386 2.20494 12.534C2.02776 12.5017 1.84529 12.4661 1.65751 12.4273C1.58735 12.4126 1.52349 12.3914 1.46595 12.3637C1.40689 12.3354 1.34556 12.3205 1.28196 12.319C1.25224 12.318 1.22421 12.3064 1.20321 12.2864C1.13103 12.2183 1.05052 12.192 0.96168 12.2077C0.941994 12.2112 0.92256 12.2095 0.903378 12.2024C0.882178 12.1948 0.86022 12.1926 0.837506 12.1956C0.807724 12.1991 0.802677 12.1898 0.822363 12.1676C0.825391 12.164 0.825895 12.1605 0.823876 12.157C0.800152 12.1141 0.784504 12.1166 0.776933 12.1645C0.752199 12.3281 0.729484 12.4916 0.708788 12.6552C0.676988 11.0419 0.680016 9.59095 0.717874 8.30226C0.724941 8.05442 0.754975 7.72632 0.807976 7.31796C0.858454 7.31846 0.880159 7.29802 0.873092 7.25662C0.869054 7.23441 0.877383 7.22684 0.898079 7.23391C0.900603 7.23492 0.902874 7.23467 0.904893 7.23315C0.911455 7.2276 0.914231 7.22078 0.913222 7.21271C0.911707 7.19706 0.915241 7.18217 0.923822 7.16804C0.946537 7.13068 0.953098 7.13346 0.943508 7.17637C0.941993 7.18293 0.941993 7.18974 0.943508 7.19681C0.944517 7.20236 0.947042 7.2069 0.95108 7.21044C1.05153 7.29625 1.15248 7.37575 1.25394 7.44894C1.32411 7.49993 1.40866 7.53905 1.50759 7.5663C1.59441 7.59053 1.67593 7.62385 1.75216 7.66625C1.83847 7.71471 1.91949 7.76165 1.9952 7.80708C2.00934 7.81516 2.02322 7.81995 2.03685 7.82147C2.04442 7.82197 2.05174 7.82197 2.05881 7.82147C2.07647 7.81995 2.09212 7.82525 2.10575 7.83737C2.15522 7.8833 2.212 7.90299 2.27611 7.89642C2.30337 7.8939 2.3281 7.90021 2.35031 7.91535C2.40129 7.94917 2.45657 7.96911 2.51613 7.97517C2.65595 7.9893 2.78038 8.01656 2.88941 8.05694C3.18925 8.1685 3.48252 8.24573 3.76923 8.28863C3.88634 8.30681 4.00395 8.3116 4.12207 8.30302C4.24675 8.29394 4.37698 8.29721 4.51276 8.31286C4.58091 8.32119 4.63467 8.29015 4.7119 8.29621C4.99457 8.31993 5.27674 8.32321 5.5584 8.30605C5.64017 8.30151 5.72599 8.30302 5.81583 8.31059C5.90316 8.31867 5.99049 8.32195 6.07781 8.32043C6.2035 8.31842 6.32086 8.32119 6.42989 8.32876C6.56467 8.33886 6.68228 8.34239 6.78273 8.33936C7.23147 8.32624 7.66709 8.31791 8.08959 8.31438C8.7251 8.30883 9.37853 8.31059 10.0499 8.31968C10.1059 8.32069 10.1602 8.32422 10.2127 8.33028C10.2929 8.34012 10.3588 8.31665 10.4406 8.31968C10.9923 8.34189 11.5518 8.34618 12.1192 8.33255C12.2434 8.32952 12.3691 8.3323 12.4963 8.34088C12.6265 8.34946 12.7537 8.3487 12.8779 8.33861C12.9952 8.32952 13.0967 8.37041 13.2186 8.34012C13.2433 8.33406 13.2678 8.33432 13.292 8.34088C13.3178 8.34795 13.344 8.35097 13.3708 8.34996C13.9417 8.32523 14.505 8.30958 15.0608 8.30302C15.1451 8.30201 15.2286 8.2952 15.3114 8.28258C15.4234 8.26516 15.5332 8.28106 15.6506 8.26365C15.7844 8.24346 15.9123 8.22604 16.0345 8.2114C16.2003 8.19172 16.3812 8.21746 16.5599 8.20989C16.6296 8.20737 16.6998 8.20812 16.7704 8.21216C17.149 8.23538 17.4887 8.23513 17.7896 8.2114C18.0263 8.19323 18.3067 8.19172 18.6308 8.20686C18.6974 8.20989 18.7645 8.21746 18.8322 8.22958C18.8928 8.24068 18.9644 8.24346 19.0472 8.2379C19.284 8.22276 19.5043 8.18086 19.7082 8.11222C19.7178 8.10919 19.7254 8.10414 19.7309 8.09707C19.7355 8.09203 19.7398 8.08647 19.7438 8.08042C19.7478 8.07436 19.7534 8.07007 19.7605 8.06754C19.9871 7.99687 20.2029 7.8833 20.4078 7.72682C20.4634 7.68492 20.5237 7.6554 20.5888 7.63823C20.6852 7.613 20.7637 7.5658 20.8243 7.49664C20.9626 7.33814 21.1087 7.21321 21.2627 7.12185C21.3404 7.07592 21.4143 7.02342 21.4845 6.96436C21.5587 6.90227 21.6428 6.87098 21.7366 6.87047C21.7589 6.87047 21.7785 6.8629 21.7957 6.84776C21.8613 6.78921 21.9428 6.741 22.0403 6.70314C22.0887 6.68446 22.1246 6.64888 22.1478 6.59638C22.1579 6.57468 22.1733 6.55776 22.194 6.54565C22.2732 6.4982 22.3464 6.42981 22.4135 6.34046C22.4287 6.32027 22.4486 6.30664 22.4734 6.29957C22.5168 6.28796 22.5481 6.26146 22.5672 6.22007C22.5789 6.19635 22.5953 6.17666 22.6165 6.16101C22.6508 6.13628 22.6833 6.11003 22.7141 6.08227C22.8201 5.98687 22.9466 5.96642 23.0768 6.02624C23.101 6.03684 23.1187 6.054 23.1298 6.07773L23.226 6.27989C23.2319 6.29208 23.2405 6.30274 23.2513 6.31102C23.2621 6.31931 23.2747 6.32498 23.2881 6.32759C23.3274 6.33516 23.363 6.34955 23.3948 6.37075C23.415 6.38387 23.437 6.39195 23.4607 6.39498C23.5304 6.40356 23.5967 6.4245 23.6598 6.45782C23.6815 6.46943 23.6949 6.48735 23.7 6.51158L23.7969 6.99389Z" fill="#00B9FF"/>
<path d="M47.895 6.07167C48.158 6.86972 48.294 7.79699 48.3031 8.85348C48.3152 10.228 48.316 11.6287 48.3054 13.0557C48.3049 13.1476 48.2993 13.2331 48.2887 13.3124C48.2832 13.3548 48.259 13.376 48.2161 13.376L29.683 13.3843C29.6139 13.3843 29.5755 13.3497 29.568 13.2806C29.5614 13.221 29.5589 13.1602 29.5604 13.0981C29.577 12.2148 29.6028 11.3256 29.6376 10.4306C29.6386 10.3993 29.6237 10.3839 29.5929 10.3845L26.7157 10.392C26.6963 10.3922 26.6776 10.3848 26.6636 10.3714C26.6496 10.3579 26.6414 10.3395 26.6408 10.3201C26.6261 9.86479 26.6287 9.39863 26.6483 8.92162C26.6488 8.91153 26.652 8.90173 26.6574 8.89324C26.6629 8.88474 26.6705 8.87787 26.6795 8.87331C26.6884 8.86876 26.6984 8.86669 26.7084 8.86733C26.7183 8.86797 26.7279 8.87129 26.7362 8.87695C27.1213 9.13337 27.5489 9.26991 28.0188 9.28657C29.4433 9.33755 30.4415 8.74041 31.0134 7.49513C31.2526 7.55823 31.4419 7.62814 31.5812 7.70486C31.7832 7.81642 31.9613 7.8987 32.1158 7.9517C32.2188 7.98653 32.3043 8.05089 32.4118 8.06906C32.4356 8.0736 32.4578 8.08218 32.4785 8.0948C32.5406 8.13317 32.61 8.16143 32.6867 8.17961C32.8926 8.22958 33.09 8.27879 33.2788 8.32725C33.8088 8.46253 34.2964 8.51982 34.7416 8.49913C35.2368 8.47591 35.7037 8.46985 36.1424 8.48095C36.1833 8.48196 36.2226 8.48979 36.2605 8.50443C36.2832 8.51301 36.3067 8.51629 36.3309 8.51427C36.4697 8.50266 36.6133 8.49913 36.7617 8.50367C36.9021 8.50771 37.0399 8.50493 37.1751 8.49534C37.5865 8.46657 37.9959 8.46379 38.4033 8.48701C38.742 8.5067 39.065 8.51427 39.3724 8.50973C39.6965 8.50518 40.0203 8.50064 40.3439 8.4961C40.4145 8.49509 40.4728 8.49635 40.5188 8.49988C40.5824 8.50443 40.6432 8.50544 40.7012 8.50291C41.3216 8.47969 41.9266 8.46177 42.5162 8.44915C42.8538 8.44158 43.187 8.42391 43.5156 8.39615C43.8316 8.3694 44.169 8.34088 44.5279 8.31059C44.7354 8.29343 44.9199 8.24926 45.0814 8.17809C45.2722 8.09379 45.4479 8.00571 45.6084 7.91384C45.6281 7.90274 45.644 7.88734 45.6561 7.86766L45.7099 7.78285C45.724 7.76115 45.7419 7.74323 45.7636 7.72909L45.9075 7.63521C45.9292 7.62107 45.937 7.60164 45.9309 7.57691C45.9294 7.56883 45.9262 7.56151 45.9211 7.55495C45.9095 7.5393 45.9113 7.52542 45.9264 7.5133C45.99 7.46232 46.0392 7.40352 46.074 7.33689C46.0867 7.31215 46.1069 7.29903 46.1346 7.29751C46.1795 7.29499 46.2182 7.27732 46.2505 7.24451C46.3186 7.1741 46.5018 7.05825 46.5957 7.03099C46.7411 6.98859 46.8746 6.92272 46.9963 6.83337C47.0755 6.77482 47.1575 6.72056 47.2423 6.67059C47.3171 6.62717 47.3844 6.58124 47.4445 6.53278C47.4622 6.51814 47.4824 6.50931 47.5051 6.50628C47.6383 6.48558 47.7307 6.40785 47.7822 6.27308C47.7918 6.24733 47.7903 6.22234 47.7777 6.19812C47.7554 6.15622 47.7529 6.11256 47.7701 6.06713C47.7847 6.02877 47.7941 6.03003 47.7981 6.07091C47.7986 6.07748 47.8016 6.08328 47.8072 6.08833C47.8168 6.09691 47.8279 6.09994 47.8405 6.09741C47.8577 6.09388 47.8758 6.0853 47.895 6.07167Z" fill="#00B9FF"/>
<path d="M24.6843 22.8662C23.4986 22.9319 22.4731 23.1492 21.6079 23.5182C20.9871 23.7832 20.457 24.2125 19.9778 24.6653C19.9157 24.7238 19.8874 24.7104 19.893 24.6251C19.9071 24.4081 19.921 24.1925 19.9346 23.9785C19.9901 23.0997 19.8422 22.2562 19.4909 21.4481C19.4788 21.4203 19.4775 21.3915 19.4871 21.3618C19.4901 21.3538 19.4953 21.3469 19.5023 21.342C19.5092 21.3371 19.5174 21.3345 19.5257 21.3345L24.6873 21.3421C24.6938 21.3421 24.7003 21.3408 24.7063 21.3383C24.7123 21.3358 24.7178 21.3322 24.7224 21.3276C24.727 21.323 24.7306 21.3176 24.733 21.3116C24.7354 21.3057 24.7366 21.2993 24.7365 21.2929L24.7229 19.0751C24.7229 19.0703 24.7219 19.0656 24.72 19.0612C24.7182 19.0567 24.7154 19.0528 24.7119 19.0494C24.7085 19.0461 24.7044 19.0435 24.6999 19.0418C24.6954 19.0401 24.6906 19.0393 24.6858 19.0396C24.1098 19.0668 23.5387 19.2031 22.9723 19.4484C22.275 19.7505 21.5996 20.3691 21.087 20.9491C21.0284 21.0147 21.0062 21.0041 21.0204 20.9173C21.1975 19.8368 21.2687 18.8291 20.9893 17.8084C20.8856 17.4298 20.713 17.0906 20.5646 16.7325C20.5628 16.7282 20.5622 16.7236 20.5626 16.7191C20.5631 16.7145 20.5646 16.7102 20.5672 16.7063C20.5697 16.7025 20.5732 16.6994 20.5772 16.6972C20.5812 16.6951 20.5857 16.6939 20.5903 16.6939C21.9305 16.7035 23.256 16.7065 24.5669 16.703C24.5992 16.7025 24.6346 16.6987 24.6729 16.6916C24.6885 16.6885 24.7025 16.6799 24.7126 16.6675C24.7227 16.6551 24.7282 16.6395 24.7282 16.6235L24.7199 14.7222C24.7194 14.6859 24.7012 14.6702 24.6653 14.6753C24.2686 14.7293 23.9352 14.8149 23.6651 14.932C23.0978 15.1778 22.57 15.5657 22.0819 16.0957C22.0713 16.1068 22.0587 16.1151 22.0441 16.1207C22.0017 16.1369 21.9905 16.1247 22.0107 16.0844C22.6013 14.8737 22.8179 13.4661 22.4188 12.16C22.4037 12.1095 22.4224 12.0845 22.4749 12.085L24.6593 12.1025C24.6976 12.1025 24.7171 12.0835 24.7176 12.0457L24.735 10.4806C24.7352 10.4574 24.7446 10.4352 24.7612 10.4187C24.7777 10.4023 24.8002 10.393 24.8236 10.3928L25.6148 10.3852C25.6517 10.3852 25.6698 10.4036 25.6693 10.4405L25.6587 12.0366C25.6586 12.0442 25.6601 12.0518 25.6629 12.0588C25.6657 12.0659 25.67 12.0723 25.6753 12.0778C25.6807 12.0832 25.6871 12.0875 25.6941 12.0904C25.7011 12.0934 25.7087 12.0949 25.7163 12.0949L27.9666 12.0805C27.9712 12.0805 27.9758 12.0817 27.98 12.0838C27.9841 12.0859 27.9877 12.0889 27.9905 12.0927C27.9933 12.0964 27.9952 12.1007 27.996 12.1053C27.9968 12.1099 27.9966 12.1146 27.9953 12.1191C27.5766 13.5411 27.8 14.7926 28.4239 16.0942C28.4315 16.1098 28.4297 16.124 28.4186 16.1366C28.4166 16.1386 28.4143 16.1404 28.4118 16.1419C28.4002 16.1454 28.3903 16.1429 28.3822 16.1343C27.647 15.337 26.8073 14.8169 25.717 14.6389C25.6797 14.6329 25.661 14.6488 25.661 14.6866L25.6602 16.6575C25.6602 16.6699 25.6651 16.6818 25.6737 16.6907C25.6823 16.6996 25.694 16.7048 25.7064 16.7052C27.061 16.7408 28.5783 16.6628 29.8905 16.712C29.8951 16.7123 29.8996 16.7138 29.9036 16.7163C29.9075 16.7188 29.9107 16.7223 29.9129 16.7264C29.9151 16.7305 29.9162 16.735 29.9161 16.7397C29.9161 16.7444 29.9148 16.7489 29.9125 16.7529C29.1765 18.0204 29.172 19.4257 29.4839 20.8734C29.5011 20.9537 29.4794 20.966 29.4188 20.9105C29.206 20.7159 29.0304 20.4941 28.8063 20.3025C27.9274 19.5489 26.8874 19.1233 25.686 19.0259C25.6816 19.0256 25.6772 19.0262 25.6731 19.0277C25.669 19.0291 25.6652 19.0314 25.662 19.0344C25.6588 19.0374 25.6563 19.041 25.6545 19.045C25.6528 19.049 25.6519 19.0534 25.6519 19.0577L25.6557 21.2664C25.6557 21.3163 25.6807 21.3413 25.7307 21.3413C27.4489 21.3383 29.1868 21.3403 30.9445 21.3474C30.9697 21.3474 30.9939 21.3529 31.0172 21.364C31.0208 21.3658 31.024 21.3683 31.0266 21.3713C31.0292 21.3743 31.0312 21.3778 31.0325 21.3816C31.0338 21.3854 31.0343 21.3895 31.034 21.3935C31.0337 21.3974 31.0326 21.4013 31.0308 21.4049C30.5417 22.3885 30.4546 23.5348 30.6227 24.6319C30.6237 24.6375 30.6231 24.6432 30.6211 24.6485C30.6191 24.6538 30.6157 24.6584 30.6112 24.6619C30.6067 24.6655 30.6014 24.6678 30.5957 24.6687C30.59 24.6695 30.5841 24.6688 30.5788 24.6668C30.5439 24.6531 30.5121 24.6352 30.4834 24.613C30.1449 24.3518 29.8383 24.058 29.4612 23.8468C28.2596 23.1721 27.0769 22.9367 25.7193 22.867C25.6875 22.8655 25.6714 22.8806 25.6709 22.9124C25.6663 23.1325 25.6711 23.3584 25.6852 23.5901C25.6864 23.612 25.6936 23.6331 25.706 23.6511C25.7185 23.6692 25.7356 23.6834 25.7557 23.6923C26.533 24.0366 27.3321 24.4179 28.1528 24.8364C28.3156 24.9189 28.4761 24.9787 28.6601 24.9795C29.7469 24.98 30.9437 24.981 32.2506 24.9825C32.2561 24.9825 32.2616 24.9839 32.2665 24.9866C32.2713 24.9893 32.2754 24.9931 32.2785 24.9978C32.2815 25.0024 32.2833 25.0078 32.2837 25.0133C32.2841 25.0188 32.2831 25.0244 32.2809 25.0295C32.2097 25.1784 32.1532 25.3384 32.1113 25.5095C31.8846 26.4231 31.8826 27.3539 32.1052 28.3019C32.1289 28.4029 32.1009 28.4203 32.0212 28.3541C31.8152 28.1835 31.5901 28.0205 31.3458 27.865C30.7673 27.4965 30.202 27.1533 29.6497 26.8353C28.0693 25.9247 26.5789 25.0996 25.1787 24.3601C25.05 24.292 24.9788 24.3526 24.8736 24.4101C23.8746 24.9553 22.8893 25.5085 21.9176 26.0698C20.6885 26.7805 19.5267 27.5422 18.4324 28.3549C18.3784 28.3953 18.3627 28.3839 18.3855 28.3208C18.4132 28.2451 18.4344 28.1689 18.4491 28.0922C18.652 27.0422 18.5909 26.0279 18.2658 25.0491C18.2632 25.0412 18.2625 25.0328 18.2637 25.0245C18.265 25.0162 18.2682 25.0084 18.2731 25.0016C18.2779 24.9948 18.2844 24.9892 18.2918 24.9854C18.2992 24.9816 18.3074 24.9795 18.3158 24.9795C19.5661 24.984 20.7256 24.9815 21.7942 24.9719C21.9895 24.9704 22.168 24.9255 22.3295 24.8371C23.0922 24.4197 23.8716 24.0333 24.6676 23.6779C24.6917 23.6672 24.7121 23.6495 24.7262 23.6269C24.7402 23.6044 24.7472 23.5781 24.7464 23.5515L24.7252 22.9026C24.7241 22.8768 24.7105 22.8647 24.6843 22.8662Z" fill="#002056"/>
<path d="M20.1883 13.379C18.948 13.5077 17.7744 13.7833 16.669 14.3709C15.615 14.932 14.7617 15.8587 14.4528 17.0331C14.4205 16.9624 14.3874 16.9152 14.3536 16.8915C14.3421 16.8835 14.3325 16.8732 14.3256 16.8612C14.3023 16.8223 14.2665 16.8021 14.218 16.8006C14.213 16.8006 14.2112 16.7981 14.2127 16.7931C14.2143 16.786 14.2143 16.7787 14.2127 16.7711C14.2112 16.7643 14.2076 16.7581 14.2024 16.7535C14.1973 16.7489 14.1908 16.746 14.184 16.7454C14.0709 16.7348 14.0091 16.6886 13.9985 16.6068C13.9954 16.5836 13.9826 16.5697 13.9599 16.5652C13.9316 16.5591 13.9074 16.546 13.8872 16.5258C13.872 16.5101 13.8546 16.5071 13.8349 16.5167C13.8036 16.5328 13.7784 16.5248 13.7592 16.4925C13.5669 16.4062 13.3748 16.333 13.183 16.2729C13.0543 16.2328 12.9157 16.2691 12.781 16.2661C12.684 16.2641 12.5841 16.2683 12.4811 16.2789C12.0298 16.3249 11.5788 16.3716 11.1281 16.419C11.0963 16.4226 10.9888 16.4289 10.8055 16.438C10.6965 16.443 10.589 16.4569 10.483 16.4796C10.3654 16.5053 10.2445 16.5288 10.1203 16.55C9.99713 16.5712 9.87522 16.5924 9.75458 16.6136C9.47645 16.6621 9.16778 16.6593 8.82858 16.6053C8.61506 16.5715 8.25945 16.5641 7.76174 16.5833C7.61485 16.5889 7.46947 16.5904 7.32561 16.5879C7.17973 16.5858 7.03613 16.5899 6.89479 16.6C6.68581 16.6151 6.47179 16.6235 6.25272 16.625C5.56219 16.6295 4.89917 16.6558 4.26366 16.7037C3.9401 16.7279 3.68493 16.757 3.49817 16.7908C3.3533 16.8175 3.20717 16.8398 3.05977 16.8574C2.72208 16.8978 2.39801 16.9505 2.08758 17.0157C2.05224 17.0227 2.01792 17.024 1.9846 17.0195C1.95078 17.0144 1.91495 17.0119 1.87709 17.0119C1.85791 17.0119 1.84125 17.0184 1.82711 17.0316C1.7837 17.0719 1.74231 17.0719 1.70294 17.0316C1.69919 17.0276 1.69408 17.0251 1.68862 17.0247C1.68315 17.0243 1.67773 17.0259 1.67341 17.0293C1.66634 17.0343 1.6613 17.0407 1.65827 17.0482C1.6507 17.0644 1.63808 17.0727 1.62041 17.0732C1.48261 17.0783 1.35969 17.0533 1.25167 16.9983C1.23199 16.9887 1.2118 16.9829 1.1911 16.9808C1.16788 16.9793 1.14567 16.9844 1.12447 16.996C1.09822 17.0101 1.07551 17.0058 1.05633 16.9831C1.03916 16.9629 1.01872 16.9579 0.994996 16.968C0.970767 16.9786 0.945528 16.9806 0.91928 16.974L0.875364 16.9627C0.845078 16.9551 0.819082 16.9629 0.797377 16.9861C0.748414 17.0386 0.726456 17.0964 0.731504 17.1595L0.708788 12.6552C0.729484 12.4916 0.752199 12.3281 0.776933 12.1645C0.784504 12.1166 0.800152 12.1141 0.823876 12.157C0.825895 12.1605 0.825391 12.164 0.822363 12.1676C0.802677 12.1898 0.807724 12.1991 0.837506 12.1956C0.86022 12.1926 0.882178 12.1948 0.903378 12.2024C0.92256 12.2095 0.941994 12.2112 0.96168 12.2077C1.05052 12.192 1.13103 12.2183 1.20321 12.2864C1.22421 12.3064 1.25224 12.318 1.28196 12.319C1.34556 12.3205 1.40689 12.3354 1.46595 12.3637C1.52349 12.3914 1.58735 12.4126 1.65751 12.4273C1.84529 12.4661 2.02776 12.5017 2.20494 12.534C2.23169 12.5386 2.25769 12.5355 2.28292 12.5249C2.34552 12.4977 2.40357 12.501 2.45707 12.5348C2.47625 12.5474 2.4972 12.5545 2.51992 12.556C2.65065 12.5666 2.7771 12.5916 2.89925 12.6309C2.9144 12.636 2.92929 12.6352 2.94393 12.6287C2.96688 12.618 2.99254 12.6161 3.01586 12.6234C3.15568 12.6643 3.295 12.6852 3.43381 12.6862C3.52416 12.6867 3.61098 12.6976 3.69427 12.7188C3.79624 12.745 3.93025 12.7541 4.09632 12.746C4.221 12.7405 4.41862 12.7579 4.68918 12.7983C4.76187 12.8089 4.8704 12.8122 5.01476 12.8081C5.12934 12.8046 5.23762 12.8074 5.33958 12.8165C5.40066 12.8215 5.5213 12.8132 5.7015 12.7915C5.71766 12.79 5.7328 12.7935 5.74693 12.8021C5.75249 12.8056 5.75829 12.8089 5.76435 12.8119C5.76788 12.8134 5.77141 12.8137 5.77495 12.8127C5.82492 12.799 5.89483 12.7887 5.98468 12.7816C6.39759 12.7493 6.72064 12.74 6.95385 12.7536C7.02704 12.7576 7.08458 12.7549 7.12648 12.7453C7.14919 12.7397 7.1714 12.7415 7.19311 12.7506C7.23854 12.7698 7.28523 12.77 7.33318 12.7513C7.35741 12.7423 7.3819 12.741 7.40663 12.7476C7.47225 12.7642 7.54115 12.772 7.61333 12.771C7.74255 12.77 7.87228 12.7715 8.00251 12.7756C8.09337 12.7786 8.20114 12.7713 8.32582 12.7536C8.43384 12.738 8.54262 12.7304 8.65216 12.7309C8.76775 12.7319 8.88763 12.7261 9.01181 12.7135C9.08803 12.7059 9.1645 12.7054 9.24123 12.712C9.31947 12.719 9.39771 12.7208 9.47595 12.7173C10.0963 12.6895 10.6816 12.6577 11.2318 12.6219C11.3878 12.6118 11.5304 12.5971 11.6596 12.5779C11.702 12.5719 11.7449 12.5711 11.7883 12.5757C11.8686 12.5832 11.911 12.5378 11.9867 12.5272C12.0564 12.5176 12.125 12.5116 12.1926 12.509C12.2194 12.5081 12.2449 12.497 12.2638 12.478L12.2812 12.4613C12.2898 12.4523 12.3004 12.4477 12.313 12.4477C12.5826 12.4512 12.839 12.4465 13.0823 12.4333C13.204 12.4263 13.3322 12.4131 13.4669 12.394C13.5891 12.3768 13.7153 12.3629 13.8455 12.3523C14.2418 12.319 14.6264 12.2948 14.9994 12.2796C15.1519 12.2731 15.3028 12.2665 15.4522 12.2599C15.7258 12.2468 16.016 12.2344 16.3229 12.2228C16.4729 12.2168 16.6246 12.2057 16.778 12.1895C16.8769 12.1784 16.9779 12.1701 17.0809 12.1645C17.1884 12.159 17.2951 12.1438 17.4011 12.1191C17.8983 12.004 18.4183 11.9609 18.9609 11.9896C19.1335 11.9987 19.3039 12.0204 19.472 12.0547C19.63 12.0871 19.7844 12.1141 19.9354 12.1358C20.0797 12.1565 20.2047 12.2231 20.3102 12.3357C20.3364 12.3634 20.3584 12.3945 20.376 12.4288C20.3871 12.451 20.4033 12.4687 20.4245 12.4818C20.4512 12.4974 20.4639 12.5207 20.4623 12.5514C20.4548 12.7271 20.4202 12.8922 20.3586 13.0466C20.3521 13.0628 20.3503 13.0794 20.3533 13.0966C20.3644 13.1597 20.3495 13.2127 20.3086 13.2556C20.3062 13.258 20.3049 13.2613 20.3049 13.2647C20.3049 13.2681 20.3062 13.2714 20.3086 13.2738L20.3276 13.2935C20.3417 13.3071 20.3397 13.3177 20.3215 13.3253L20.1883 13.379Z" fill="#00B0FF"/>
<path d="M14.4528 17.0331C14.2286 18.243 14.5302 19.2957 15.3576 20.1912C15.3434 20.2023 15.3283 20.2003 15.3121 20.1851C15.293 20.168 15.2713 20.1637 15.247 20.1723C15.2369 20.1763 15.2324 20.1839 15.2334 20.195C15.2369 20.2333 15.2215 20.2442 15.1872 20.2275C15.1721 20.2205 15.1635 20.2253 15.1615 20.2419C15.1564 20.2803 15.136 20.3068 15.1001 20.3214C15.0295 20.3497 14.9573 20.3795 14.8836 20.4108C14.8225 20.4365 14.7584 20.4494 14.6913 20.4494C14.5772 20.4499 14.4682 20.4744 14.3642 20.5228C14.3021 20.5521 14.2344 20.569 14.1613 20.5736C14.136 20.5751 14.1128 20.5688 14.0916 20.5546C14.0754 20.544 14.06 20.5448 14.0454 20.5569C14.0288 20.5715 14.0111 20.5726 13.9924 20.5599C13.9404 20.5251 13.8935 20.5319 13.8516 20.5804C13.8369 20.5975 13.8195 20.6013 13.7993 20.5917C13.7468 20.568 13.6827 20.5617 13.607 20.5728C13.5459 20.5824 13.498 20.6061 13.4632 20.644C13.3859 20.7298 13.284 20.7616 13.1573 20.7394C13.1295 20.7348 13.106 20.7427 13.0868 20.7629C13.0636 20.7871 13.0369 20.7924 13.0066 20.7788C12.9748 20.7646 12.943 20.7636 12.9112 20.7757C12.8006 20.8191 12.6883 20.832 12.5742 20.8143C12.5462 20.8104 12.5174 20.8151 12.4917 20.828C12.4508 20.8487 12.4102 20.8494 12.3698 20.8302C12.3456 20.8186 12.3201 20.8143 12.2933 20.8174C11.8431 20.8719 11.5586 20.8969 11.44 20.8923C10.907 20.8706 10.377 20.9002 9.84999 20.9809C9.83939 20.9824 9.82929 20.9799 9.8197 20.9733C9.80557 20.9643 9.79042 20.962 9.77427 20.9665C9.67634 20.9943 9.57615 21.0044 9.47368 20.9968C9.44894 20.9953 9.42497 20.9991 9.40175 21.0082C9.36994 21.0213 9.33638 21.0286 9.30104 21.0301C8.84372 21.0468 8.39397 21.0852 7.95178 21.1452C7.80843 21.1644 7.66205 21.1753 7.51263 21.1778C7.3713 21.1803 7.22718 21.1957 7.08029 21.224C6.94022 21.2512 6.82059 21.1982 6.68581 21.2656C6.66461 21.2762 6.64265 21.2772 6.61994 21.2686C6.54119 21.2394 6.46018 21.228 6.37689 21.2346C6.3244 21.2391 6.32137 21.254 6.36781 21.2792C6.37437 21.2828 6.37714 21.2888 6.37613 21.2974C6.3726 21.3216 6.35847 21.334 6.33373 21.3345C5.80624 21.3396 5.2409 21.3401 4.63769 21.336C4.54305 21.3353 4.47263 21.3883 4.38102 21.3739C4.36329 21.3712 4.34524 21.3721 4.32794 21.3766C4.31064 21.381 4.29444 21.3888 4.28031 21.3996C4.22126 21.4446 4.15513 21.4612 4.08194 21.4496C4.05266 21.4451 4.02591 21.4511 4.00168 21.4678C3.99512 21.4723 3.98956 21.4781 3.98502 21.4852C3.9719 21.5074 3.95246 21.5198 3.92672 21.5223C3.82072 21.5324 3.71699 21.5654 3.61553 21.6215C3.5913 21.6346 3.56581 21.6381 3.53905 21.6321C3.42548 21.6086 3.32932 21.5851 3.21726 21.6321C3.14609 21.6624 3.0734 21.6778 2.9992 21.6783C2.97093 21.6788 2.94872 21.6906 2.93257 21.7138C2.92651 21.7224 2.91919 21.7297 2.91061 21.7358C2.89294 21.7479 2.87351 21.755 2.85231 21.757C2.74732 21.7656 2.64384 21.7719 2.54187 21.7759C2.51714 21.7769 2.49417 21.7843 2.47297 21.7979C2.38514 21.8554 2.29075 21.8913 2.18979 21.9054C2.16658 21.9084 2.15093 21.9208 2.14285 21.9425C2.13377 21.9677 2.11736 21.9849 2.09363 21.994C2.0472 22.0127 2.04896 22.0213 2.09894 22.0197C2.14537 22.0187 2.19282 22.019 2.24128 22.0205C2.24936 22.021 2.25592 22.0245 2.26097 22.0311C2.27106 22.0437 2.26829 22.0518 2.25264 22.0553C2.18248 22.07 2.12619 22.1129 2.08379 22.184C1.27439 20.6288 0.842806 18.904 0.731504 17.1595C0.726456 17.0964 0.748414 17.0386 0.797377 16.9861C0.819082 16.9629 0.845078 16.9551 0.875364 16.9627L0.91928 16.974C0.945528 16.9806 0.970767 16.9786 0.994996 16.968C1.01872 16.9579 1.03916 16.9629 1.05633 16.9831C1.07551 17.0058 1.09822 17.0101 1.12447 16.996C1.14567 16.9844 1.16788 16.9793 1.1911 16.9808C1.2118 16.9829 1.23199 16.9887 1.25167 16.9983C1.35969 17.0533 1.48261 17.0783 1.62041 17.0732C1.63808 17.0727 1.6507 17.0644 1.65827 17.0482C1.6613 17.0407 1.66634 17.0343 1.67341 17.0293C1.67773 17.0259 1.68315 17.0243 1.68862 17.0247C1.69408 17.0251 1.69919 17.0276 1.70294 17.0316C1.74231 17.0719 1.7837 17.0719 1.82711 17.0316C1.84125 17.0184 1.85791 17.0119 1.87709 17.0119C1.91495 17.0119 1.95078 17.0144 1.9846 17.0195C2.01792 17.024 2.05224 17.0227 2.08758 17.0157C2.39801 16.9505 2.72208 16.8978 3.05977 16.8574C3.20717 16.8398 3.3533 16.8175 3.49817 16.7908C3.68493 16.757 3.9401 16.7279 4.26366 16.7037C4.89917 16.6558 5.56219 16.6295 6.25272 16.625C6.47179 16.6235 6.68581 16.6151 6.89479 16.6C7.03613 16.5899 7.17973 16.5858 7.32561 16.5879C7.46947 16.5904 7.61485 16.5889 7.76174 16.5833C8.25945 16.5641 8.61506 16.5715 8.82858 16.6053C9.16778 16.6593 9.47645 16.6621 9.75458 16.6136C9.87522 16.5924 9.99713 16.5712 10.1203 16.55C10.2445 16.5288 10.3654 16.5053 10.483 16.4796C10.589 16.4569 10.6965 16.443 10.8055 16.438C10.9888 16.4289 11.0963 16.4226 11.1281 16.419C11.5788 16.3716 12.0298 16.3249 12.4811 16.2789C12.5841 16.2683 12.684 16.2641 12.781 16.2661C12.9157 16.2691 13.0543 16.2328 13.183 16.2729C13.3748 16.333 13.5669 16.4062 13.7592 16.4925C13.7784 16.5248 13.8036 16.5328 13.8349 16.5167C13.8546 16.5071 13.872 16.5101 13.8872 16.5258C13.9074 16.546 13.9316 16.5591 13.9599 16.5652C13.9826 16.5697 13.9954 16.5836 13.9985 16.6068C14.0091 16.6886 14.0709 16.7348 14.184 16.7454C14.1908 16.746 14.1973 16.7489 14.2024 16.7535C14.2076 16.7581 14.2112 16.7643 14.2127 16.7711C14.2143 16.7787 14.2143 16.786 14.2127 16.7931C14.2112 16.7981 14.213 16.8006 14.218 16.8006C14.2665 16.8021 14.3023 16.8223 14.3256 16.8612C14.3325 16.8732 14.3421 16.8835 14.3536 16.8915C14.3874 16.9152 14.4205 16.9624 14.4528 17.0331Z" fill="#0097FF"/>
<path d="M47.9518 30.7203C47.764 30.7309 47.5755 30.7374 47.3862 30.74C45.3959 30.7677 43.4459 30.7738 41.5364 30.7581C39.4943 30.7415 37.4568 30.7619 35.3716 30.7498C35.3039 30.7493 35.227 30.7374 35.1407 30.7142C35.0604 30.693 34.9824 30.6791 34.9067 30.6726C34.8648 30.5994 34.7689 30.5534 34.619 30.5348C34.569 30.5282 34.5425 30.4999 34.5395 30.45C34.5188 30.1229 34.4145 29.8336 34.2268 29.5823C34.148 29.4778 34.0413 29.4036 33.964 29.3013C33.9474 29.2796 33.9375 29.2549 33.9345 29.2271C33.8247 28.1437 33.674 27.1752 33.7467 26.0032C33.8002 25.1355 33.8525 24.2566 33.9035 23.3667C33.904 23.3556 33.8987 23.3501 33.8876 23.3501L32.4141 23.3539C32.4085 23.3539 32.4029 23.3527 32.3977 23.3505C32.3926 23.3482 32.3879 23.345 32.3841 23.3408C32.3802 23.3367 32.3773 23.3318 32.3754 23.3265C32.3736 23.3212 32.3728 23.3156 32.3732 23.3099C32.3884 23.0745 32.4012 22.8405 32.4421 22.6073C32.5421 22.05 32.6473 21.5003 32.661 20.9279C32.6705 20.5488 32.6801 20.1405 32.6897 19.7028C32.6907 19.6756 32.6774 19.6619 32.6496 19.6619C32.2569 19.6599 31.8531 19.6584 31.4381 19.6574C31.3624 19.6574 31.2918 19.6471 31.2261 19.6264C31.2034 19.6188 31.19 19.6031 31.186 19.5794C31.128 19.2145 31.1095 18.8291 31.1307 18.4232C31.1358 18.3273 31.1532 18.2352 31.183 18.1469C31.1921 18.1191 31.211 18.1077 31.2398 18.1128C31.3872 18.138 31.5353 18.1729 31.6842 18.2173C34.2616 18.9881 36.9836 19.7649 39.4905 20.8393C40.1806 21.1346 40.9332 21.5203 41.7484 21.9963C44.5794 23.6476 46.6775 26.1379 47.6353 29.2756C47.7787 29.7445 47.8842 30.2261 47.9518 30.7203Z" fill="#0080FF"/>
<path d="M15.3576 20.1912C15.9996 20.8643 16.8696 21.2944 17.7563 21.5299C17.7878 21.5382 17.8163 21.5553 17.8385 21.5792C17.8607 21.603 17.8758 21.6326 17.8819 21.6646C17.9748 22.1432 18.0563 22.601 18.1265 23.0381C18.1386 23.1143 18.1464 23.1941 18.15 23.2774C18.1504 23.2875 18.1487 23.2977 18.145 23.3071C18.1413 23.3166 18.1356 23.3252 18.1283 23.3324C18.1211 23.3396 18.1124 23.3452 18.1028 23.3489C18.0932 23.3526 18.083 23.3543 18.0727 23.3539C17.5816 23.3276 17.1074 23.3279 16.65 23.3546C16.6198 23.3561 16.6051 23.372 16.6061 23.4023C16.6485 24.3659 16.6972 25.2786 16.7523 26.1402C16.8083 27.02 16.6834 27.9824 16.5577 28.8826C16.5357 29.0386 16.6198 29.3657 16.4903 29.4785C16.1349 29.7864 15.9196 30.1696 15.8444 30.6279C15.8431 30.6358 15.8401 30.6433 15.8358 30.6501C15.8314 30.6568 15.8257 30.6626 15.8191 30.667C15.8124 30.6715 15.8049 30.6746 15.797 30.676C15.7892 30.6775 15.7811 30.6774 15.7733 30.6756C14.4931 30.3869 13.2077 30.0297 11.917 29.6042C10.4784 29.1292 9.13598 28.5697 7.8897 27.9256C5.40621 26.6414 3.33538 24.6781 2.08379 22.184C2.12619 22.1129 2.18248 22.07 2.25264 22.0553C2.26829 22.0518 2.27106 22.0437 2.26097 22.0311C2.25592 22.0245 2.24936 22.021 2.24128 22.0205C2.19282 22.019 2.14537 22.0187 2.09894 22.0197C2.04896 22.0213 2.0472 22.0127 2.09363 21.994C2.11736 21.9849 2.13377 21.9677 2.14285 21.9425C2.15093 21.9208 2.16658 21.9084 2.18979 21.9054C2.29075 21.8913 2.38514 21.8554 2.47297 21.7979C2.49417 21.7843 2.51714 21.7769 2.54187 21.7759C2.64384 21.7719 2.74732 21.7656 2.85231 21.757C2.87351 21.755 2.89294 21.7479 2.91061 21.7358C2.91919 21.7297 2.92651 21.7224 2.93257 21.7138C2.94872 21.6906 2.97093 21.6788 2.9992 21.6783C3.0734 21.6778 3.14609 21.6624 3.21726 21.6321C3.32932 21.5851 3.42548 21.6086 3.53905 21.6321C3.56581 21.6381 3.5913 21.6346 3.61553 21.6215C3.71699 21.5654 3.82072 21.5324 3.92672 21.5223C3.95246 21.5198 3.9719 21.5074 3.98502 21.4852C3.98956 21.4781 3.99512 21.4723 4.00168 21.4678C4.02591 21.4511 4.05266 21.4451 4.08194 21.4496C4.15513 21.4612 4.22126 21.4446 4.28031 21.3996C4.29444 21.3888 4.31064 21.381 4.32794 21.3766C4.34524 21.3721 4.36329 21.3712 4.38102 21.3739C4.47263 21.3883 4.54305 21.3353 4.63769 21.336C5.2409 21.3401 5.80624 21.3396 6.33373 21.3345C6.35847 21.334 6.3726 21.3216 6.37613 21.2974C6.37714 21.2888 6.37437 21.2828 6.36781 21.2792C6.32137 21.254 6.3244 21.2391 6.37689 21.2346C6.46018 21.228 6.54119 21.2394 6.61994 21.2686C6.64265 21.2772 6.66461 21.2762 6.68581 21.2656C6.82059 21.1982 6.94022 21.2512 7.08029 21.224C7.22718 21.1957 7.3713 21.1803 7.51263 21.1778C7.66205 21.1753 7.80843 21.1644 7.95178 21.1452C8.39397 21.0852 8.84372 21.0468 9.30104 21.0301C9.33638 21.0286 9.36994 21.0213 9.40175 21.0082C9.42497 20.9991 9.44894 20.9953 9.47368 20.9968C9.57615 21.0044 9.67634 20.9943 9.77427 20.9665C9.79042 20.962 9.80557 20.9643 9.8197 20.9733C9.82929 20.9799 9.83939 20.9824 9.84999 20.9809C10.377 20.9002 10.907 20.8706 11.44 20.8923C11.5586 20.8969 11.8431 20.8719 12.2933 20.8174C12.3201 20.8143 12.3456 20.8186 12.3698 20.8302C12.4102 20.8494 12.4508 20.8487 12.4917 20.828C12.5174 20.8151 12.5462 20.8104 12.5742 20.8143C12.6883 20.832 12.8006 20.8191 12.9112 20.7757C12.943 20.7636 12.9748 20.7646 13.0066 20.7788C13.0369 20.7924 13.0636 20.7871 13.0868 20.7629C13.106 20.7427 13.1295 20.7348 13.1573 20.7394C13.284 20.7616 13.3859 20.7298 13.4632 20.644C13.498 20.6061 13.5459 20.5824 13.607 20.5728C13.6827 20.5617 13.7468 20.568 13.7993 20.5917C13.8195 20.6013 13.8369 20.5975 13.8516 20.5804C13.8935 20.5319 13.9404 20.5251 13.9924 20.5599C14.0111 20.5726 14.0288 20.5715 14.0454 20.5569C14.06 20.5448 14.0754 20.544 14.0916 20.5546C14.1128 20.5688 14.136 20.5751 14.1613 20.5736C14.2344 20.569 14.3021 20.5521 14.3642 20.5228C14.4682 20.4744 14.5772 20.4499 14.6913 20.4494C14.7584 20.4494 14.8225 20.4365 14.8836 20.4108C14.9573 20.3795 15.0295 20.3497 15.1001 20.3214C15.136 20.3068 15.1564 20.2803 15.1615 20.2419C15.1635 20.2253 15.1721 20.2205 15.1872 20.2275C15.2215 20.2442 15.2369 20.2333 15.2334 20.195C15.2324 20.1839 15.2369 20.1763 15.247 20.1723C15.2713 20.1637 15.293 20.168 15.3121 20.1851C15.3283 20.2003 15.3434 20.2023 15.3576 20.1912Z" fill="#0080FF"/>
<path d="M30.7612 36.53C30.738 36.5537 30.683 36.5688 30.5962 36.5754C30.1389 36.6112 29.7252 36.5918 29.3552 36.5171C29.3623 36.456 29.3148 36.403 29.2128 36.3581C28.3517 35.977 27.4964 35.6082 26.6468 35.2519C26.4939 35.1883 26.347 35.0951 26.191 35.0331C26.1648 35.023 26.1506 35.004 26.1486 34.9763C26.1426 34.9036 26.1393 34.8319 26.1388 34.7612C26.1231 33.2353 26.1241 31.7997 26.1418 30.4545C26.1421 30.445 26.1448 30.4358 26.1498 30.4277C26.1548 30.4196 26.1619 30.413 26.1703 30.4085C26.1787 30.4041 26.1881 30.4019 26.1976 30.4023C26.2071 30.4026 26.2163 30.4055 26.2243 30.4106C26.3576 30.4962 26.4901 30.6097 26.6605 30.5878C26.8927 30.5585 27.0244 30.4278 27.0557 30.1956C27.1057 29.8235 26.9787 29.5492 26.6748 29.3725C26.2251 29.111 25.7516 28.871 25.2544 28.6525C25.2486 28.6498 25.2422 28.6486 25.2358 28.6491C25.2295 28.6495 25.2233 28.6516 25.2179 28.655C25.2126 28.6585 25.2082 28.6633 25.2051 28.6689C25.2021 28.6746 25.2006 28.6809 25.2007 28.6873L25.1999 36.4323C25.1999 36.4616 25.2077 36.4888 25.2234 36.5141L25.2423 36.5443L25.1855 36.5671C25.1577 36.5782 25.1287 36.5837 25.0984 36.5837C23.4322 36.5857 21.797 36.5893 20.1928 36.5943C19.9677 36.5948 19.7822 36.5895 19.6363 36.5784C19.6105 36.5764 19.5949 36.5628 19.5893 36.5375L19.5825 36.5072L17.6843 31.5115C17.6797 31.4994 17.6791 31.4861 17.6825 31.4736C17.6859 31.4611 17.6931 31.45 17.7033 31.4418C17.9349 31.2551 18.1813 31.0718 18.4422 30.8921C20.4623 29.4959 22.6755 28.1361 24.7138 26.9784C24.8148 26.9208 24.9152 26.8716 25.0151 26.8307C25.1272 26.7845 25.2309 26.864 25.3294 26.917C27.5559 28.1341 29.7191 29.4217 31.819 30.7801C32.1314 30.982 32.4161 31.1937 32.6731 31.4153C32.6848 31.4255 32.6926 31.4394 32.695 31.4546C32.6974 31.4697 32.6942 31.4851 32.6859 31.4979C32.641 31.569 32.6027 31.6455 32.5709 31.7273C32.0832 32.9847 31.5628 34.3506 31.0096 35.825C30.9278 36.0426 30.845 36.2776 30.7612 36.53ZM29.4013 31.3729C29.5033 31.2483 29.5497 31.0867 29.5304 30.9238C29.5111 30.7608 29.4277 30.6098 29.2984 30.504C29.2344 30.4516 29.161 30.4119 29.0825 30.3871C29.0041 30.3623 28.922 30.3529 28.841 30.3595C28.76 30.3661 28.6817 30.3885 28.6106 30.4255C28.5394 30.4624 28.4768 30.5132 28.4263 30.5749C28.3243 30.6995 28.2778 30.8611 28.2971 31.0241C28.3164 31.187 28.3999 31.338 28.5292 31.4438C28.5932 31.4962 28.6665 31.536 28.745 31.5607C28.8235 31.5855 28.9055 31.5949 28.9865 31.5883C29.0675 31.5817 29.1458 31.5593 29.217 31.5224C29.2881 31.4854 29.3507 31.4346 29.4013 31.3729ZM28.9255 33.5497C29.0821 33.4202 29.1797 33.2325 29.1969 33.0278C29.2141 32.8232 29.1495 32.6185 29.0173 32.4586C28.9518 32.3795 28.8717 32.3138 28.7816 32.2652C28.6914 32.2166 28.593 32.1862 28.4919 32.1756C28.3907 32.165 28.2889 32.1744 28.1922 32.2034C28.0956 32.2324 28.0059 32.2803 27.9284 32.3444C27.7718 32.474 27.6741 32.6617 27.6569 32.8663C27.6397 33.0709 27.7043 33.2757 27.8365 33.4355C27.902 33.5146 27.9821 33.5804 28.0722 33.6289C28.1624 33.6775 28.2608 33.708 28.362 33.7186C28.4631 33.7292 28.5649 33.7197 28.6616 33.6908C28.7583 33.6618 28.8479 33.6139 28.9255 33.5497Z" fill="#002056"/>
<path d="M29.3552 36.5171L25.2423 36.5443L25.2234 36.5141C25.2077 36.4888 25.1999 36.4616 25.1999 36.4323L25.2007 28.6873C25.2006 28.6809 25.2021 28.6746 25.2051 28.6689C25.2082 28.6633 25.2126 28.6585 25.2179 28.655C25.2233 28.6516 25.2295 28.6495 25.2358 28.6491C25.2422 28.6486 25.2486 28.6498 25.2544 28.6525C25.7516 28.871 26.2251 29.111 26.6748 29.3725C26.9787 29.5492 27.1057 29.8235 27.0557 30.1956C27.0244 30.4278 26.8927 30.5585 26.6605 30.5878C26.4901 30.6097 26.3576 30.4962 26.2243 30.4106C26.2163 30.4055 26.2071 30.4026 26.1976 30.4023C26.1881 30.4019 26.1787 30.4041 26.1703 30.4085C26.1619 30.413 26.1548 30.4196 26.1498 30.4277C26.1448 30.4358 26.1421 30.445 26.1418 30.4545C26.1241 31.7997 26.1231 33.2353 26.1388 34.7612C26.1393 34.8319 26.1426 34.9036 26.1486 34.9763C26.1506 35.004 26.1648 35.023 26.191 35.0331C26.347 35.0951 26.4939 35.1883 26.6468 35.2519C27.4964 35.6082 28.3517 35.977 29.2128 36.3581C29.3148 36.403 29.3623 36.456 29.3552 36.5171Z" fill="white"/>
<path d="M28.5292 31.4438C28.7984 31.6642 29.1888 31.6324 29.4013 31.3729C29.6137 31.1134 29.5676 30.7244 29.2984 30.504C29.0291 30.2836 28.6387 30.3154 28.4263 30.5749C28.2139 30.8344 28.2599 31.2235 28.5292 31.4438Z" fill="white"/>
<path d="M47.9518 30.7203L48.2145 30.7127C48.2228 30.7124 48.231 30.7137 48.2387 30.7167C48.2464 30.7196 48.2534 30.7241 48.2594 30.7298C48.2653 30.7356 48.27 30.7424 48.2733 30.75C48.2765 30.7576 48.2781 30.7658 48.2781 30.774L48.2797 36.6087L38.3268 36.611C36.2835 36.6064 34.2492 36.5968 32.2241 36.5822C32.1267 36.5812 32.0923 36.5638 32.1211 36.53C32.2776 36.3185 32.4336 36.0547 32.589 35.7387C32.6496 35.6153 32.7685 35.5101 32.8979 35.4555C34.7106 34.6916 35.7479 32.5443 34.9067 30.6726C34.9824 30.6791 35.0604 30.693 35.1407 30.7142C35.227 30.7374 35.3039 30.7493 35.3716 30.7498C37.4568 30.7619 39.4943 30.7415 41.5364 30.7581C43.4459 30.7738 45.3959 30.7677 47.3862 30.74C47.5755 30.7374 47.764 30.7309 47.9518 30.7203Z" fill="#002056"/>
<path d="M27.8365 33.4355C28.1119 33.7683 28.5994 33.8195 28.9255 33.5497C29.2515 33.28 29.2927 32.7915 29.0173 32.4586C28.742 32.1258 28.2544 32.0747 27.9284 32.3444C27.6023 32.6142 27.5612 33.1027 27.8365 33.4355Z" fill="white"/>
<path d="M29.3552 36.5171C29.7252 36.5918 30.1389 36.6112 30.5962 36.5754C30.683 36.5688 30.738 36.5537 30.7612 36.53H32.1211C32.0923 36.5638 32.1267 36.5812 32.2241 36.5822C34.2492 36.5968 36.2835 36.6064 38.3268 36.611C38.3182 36.6847 38.2867 36.8611 38.2321 37.1402C38.1822 37.3946 38.1224 37.6165 37.9278 37.799C37.6451 38.063 37.3907 38.2358 37.1645 38.3176C37.1378 38.3272 37.1279 38.3459 37.135 38.3736C37.1411 38.3984 37.157 38.4097 37.1827 38.4077C37.475 38.3835 37.7286 38.4244 38.008 38.4259C39.8547 38.435 41.7211 38.4554 43.5822 38.4266C44.3949 38.414 45.2023 38.4105 46.0044 38.416C46.761 38.4211 47.5202 38.4188 48.2819 38.4092V39.0097C48.1366 39.1207 48.0376 39.1881 47.9851 39.2118C47.1396 39.5939 46.2525 39.7847 45.3237 39.7842C41.6262 39.7832 37.9164 39.7845 34.1942 39.788C33.8338 39.788 33.4792 39.8231 33.1304 39.8933C32.9267 39.9334 32.6897 40.0985 32.6541 40.3082C32.6322 40.4377 32.589 40.7844 32.6678 40.9056C32.6809 40.9258 32.6837 40.9472 32.6761 40.9699C32.667 40.9962 32.6753 41.0169 32.7011 41.032C31.869 41.054 31.1989 40.3279 30.3244 40.6497C29.8797 40.8137 29.5021 40.9248 29.1916 40.9828C28.5289 41.106 27.803 41.1115 27.0141 40.9995C26.2054 40.8844 25.6163 40.3203 24.7721 40.6777C24.3915 40.8382 24.0346 40.9445 23.7015 40.9964C23.0271 41.1009 22.2886 41.105 21.486 41.0086C21.0431 40.9548 20.4563 40.6073 19.9656 40.5694C19.7087 40.5497 19.4541 40.5858 19.2017 40.6777C18.6792 40.8685 18.1492 41.0653 17.6147 41.0479C17.651 41.0202 17.6677 40.977 17.6646 40.9185C17.6601 40.8261 17.6588 40.7352 17.6609 40.6459C17.6725 40.1073 17.3974 39.8226 16.8355 39.7918C16.1503 39.7547 15.4598 39.7865 14.7882 39.7857C11.5334 39.7817 8.32254 39.7794 5.15559 39.7789C3.98704 39.7789 3.24881 39.7638 2.9409 39.7335C2.17162 39.6583 1.42834 39.418 0.71106 39.0127L0.713331 38.2904L0.725446 38.3714C0.729484 38.3971 0.744627 38.411 0.770875 38.413C0.840029 38.4176 0.906912 38.4201 0.971523 38.4206C2.98557 38.4468 5.33882 38.4481 8.03129 38.4244C8.55373 38.4193 9.05799 38.4208 9.54409 38.4289C10.9882 38.4531 12.4193 38.4496 13.8372 38.4183C13.8468 38.4182 13.8562 38.4156 13.8645 38.4108C13.8728 38.4059 13.8798 38.399 13.8846 38.3906C13.8895 38.3822 13.8922 38.3727 13.8923 38.363C13.8925 38.3533 13.8902 38.3436 13.8856 38.335C13.8715 38.3078 13.8503 38.2878 13.822 38.2752C13.6545 38.1995 13.4851 38.1266 13.314 38.0564C13.0793 37.9595 12.8817 37.9118 12.7416 37.6877C12.6593 37.5559 12.573 37.4174 12.4826 37.272C12.3812 37.1077 12.366 36.9101 12.3373 36.7268C12.3342 36.7066 12.3378 36.6874 12.3479 36.6693C12.3519 36.6617 12.358 36.6577 12.366 36.6572C12.3948 36.6556 12.411 36.6408 12.4145 36.6125L12.4213 36.5633L19.5825 36.5072L19.5893 36.5375C19.5949 36.5628 19.6105 36.5764 19.6363 36.5784C19.7822 36.5895 19.9677 36.5948 20.1928 36.5943C21.797 36.5893 23.4322 36.5857 25.0984 36.5837C25.1287 36.5837 25.1577 36.5782 25.1855 36.5671L25.2423 36.5443L29.3552 36.5171ZM24.5306 38.5205C23.7363 38.8968 22.933 38.9029 22.0501 38.8734C21.4146 38.8522 20.7824 38.7386 20.1534 38.5326C19.796 38.4153 19.3713 38.2442 18.9889 38.279C18.5982 38.3153 18.6527 38.8022 18.9844 38.9006C19.609 39.0861 20.2382 39.314 20.8742 39.4715C21.6284 39.6578 22.4014 39.6593 23.1866 39.6245C23.8416 39.5949 24.4019 39.3966 25.0136 39.1338C25.1901 39.0581 25.4058 39.0604 25.5845 39.1278C25.8203 39.2166 26.058 39.3044 26.2978 39.3913C27.1064 39.6835 27.9756 39.6623 28.8176 39.6169C29.2093 39.5962 29.6162 39.5235 30.0382 39.3988C30.5429 39.2494 31.0936 39.0758 31.6903 38.8779C31.9818 38.7818 31.9613 38.46 31.716 38.3381C31.5843 38.2724 31.4366 38.2573 31.2731 38.2926C30.6106 38.4365 29.9882 38.6871 29.3249 38.7901C28.6137 38.9006 27.8727 38.9122 27.1019 38.8249C26.6347 38.7719 26.1615 38.5925 25.7049 38.388C25.2968 38.2048 24.9061 38.3426 24.5306 38.5205Z" fill="#00B0FF"/>
<path d="M12.4213 36.5633L12.4145 36.6125C12.411 36.6408 12.3948 36.6556 12.366 36.6572C12.358 36.6577 12.3519 36.6617 12.3479 36.6693C12.3378 36.6874 12.3342 36.7066 12.3373 36.7268C12.366 36.9101 12.3812 37.1077 12.4826 37.272C12.573 37.4174 12.6593 37.5559 12.7416 37.6877C12.8817 37.9118 13.0793 37.9595 13.314 38.0564C13.4851 38.1266 13.6545 38.1995 13.822 38.2752C13.8503 38.2878 13.8715 38.3078 13.8856 38.335C13.8902 38.3436 13.8925 38.3533 13.8923 38.363C13.8922 38.3727 13.8895 38.3822 13.8846 38.3906C13.8798 38.399 13.8728 38.4059 13.8645 38.4108C13.8562 38.4156 13.8468 38.4182 13.8372 38.4183C12.4193 38.4496 10.9882 38.4531 9.54409 38.4289C9.05799 38.4208 8.55373 38.4193 8.03129 38.4244C5.33882 38.4481 2.98557 38.4468 0.971523 38.4206C0.906912 38.4201 0.840029 38.4176 0.770875 38.413C0.744627 38.411 0.729484 38.3971 0.725446 38.3714L0.713331 38.2904L0.711817 36.6079C0.711817 36.5975 0.715966 36.5875 0.723349 36.5801C0.730733 36.5727 0.740747 36.5686 0.751189 36.5686L12.4213 36.5633Z" fill="#0058D2"/>
<path d="M48.2797 36.6087L48.2819 38.4092C47.5202 38.4188 46.761 38.4211 46.0044 38.416C45.2023 38.4105 44.3949 38.414 43.5822 38.4266C41.7211 38.4554 39.8547 38.435 38.008 38.4259C37.7286 38.4244 37.475 38.3835 37.1827 38.4077C37.157 38.4097 37.1411 38.3984 37.135 38.3736C37.1279 38.3459 37.1378 38.3272 37.1645 38.3176C37.3907 38.2358 37.6451 38.063 37.9278 37.799C38.1224 37.6165 38.1822 37.3946 38.2321 37.1402C38.2867 36.8611 38.3182 36.6847 38.3268 36.611L48.2797 36.6087Z" fill="#0058D2"/>
<path d="M24.5306 38.5205C24.9061 38.3426 25.2968 38.2048 25.7049 38.388C26.1615 38.5925 26.6347 38.7719 27.1019 38.8249C27.8727 38.9122 28.6137 38.9006 29.3249 38.7901C29.9882 38.6871 30.6106 38.4365 31.2731 38.2926C31.4366 38.2573 31.5843 38.2724 31.716 38.3381C31.9613 38.46 31.9818 38.7818 31.6903 38.8779C31.0936 39.0758 30.5429 39.2494 30.0382 39.3988C29.6162 39.5235 29.2093 39.5962 28.8176 39.6169C27.9756 39.6623 27.1064 39.6835 26.2978 39.3913C26.058 39.3044 25.8203 39.2166 25.5845 39.1278C25.4058 39.0604 25.1901 39.0581 25.0136 39.1338C24.4019 39.3966 23.8416 39.5949 23.1866 39.6245C22.4014 39.6593 21.6284 39.6578 20.8742 39.4715C20.2382 39.314 19.609 39.0861 18.9844 38.9006C18.6527 38.8022 18.5982 38.3153 18.9889 38.279C19.3713 38.2442 19.796 38.4153 20.1534 38.5326C20.7824 38.7386 21.4146 38.8522 22.0501 38.8734C22.933 38.9029 23.7363 38.8968 24.5306 38.5205Z" fill="white"/>
<path d="M48.2819 39.0097C48.292 39.8042 48.207 40.5714 48.0268 41.3114C47.8458 41.3145 47.6747 41.2933 47.499 41.2933C44.6299 41.2912 41.7721 41.2892 38.9257 41.2872C38.4472 41.2872 37.9724 41.3288 37.8339 41.8816C37.743 42.2425 37.8026 42.5842 38.0126 42.9068C38.0194 42.9172 38.0234 42.9291 38.0244 42.9415C38.0254 42.9538 38.0233 42.9662 38.0182 42.9775C38.0131 42.9888 38.0053 42.9985 37.9955 43.0059C37.9856 43.0133 37.974 43.018 37.9618 43.0196C37.8462 43.0357 37.7317 43.0438 37.6181 43.0438C36.1936 43.0484 34.7543 43.0529 33.3 43.0574C32.987 43.0584 32.7031 43.0284 32.4482 42.9673C32.1597 42.8977 31.8864 42.778 31.5797 42.8144C31.2754 42.85 31.005 42.9984 30.7022 43.0181C29.7421 43.0801 28.7472 43.0665 27.8106 43.0552C27.326 43.0499 26.8255 43.0052 26.4053 42.778C26.1852 42.6594 25.9606 42.5373 25.7314 42.4116C25.6567 42.3707 25.5833 42.3727 25.5111 42.4176C25.2915 42.5564 25.0699 42.6844 24.8463 42.8015C24.3216 43.0764 23.7053 43.0491 23.0904 43.059C22.1314 43.0741 21.2026 43.0648 20.3041 43.0309C19.8536 43.0135 19.341 42.8901 18.8481 42.9704C18.6876 42.9966 18.5313 43.013 18.3794 43.0196C17.8777 43.0413 17.4254 43.0514 17.0226 43.0499C16.0721 43.0463 15.1223 43.0473 14.1734 43.0529C13.6668 43.0567 13.1807 43.0309 12.6727 43.0302C12.6586 43.0302 12.6447 43.0265 12.6325 43.0195C12.6203 43.0125 12.6101 43.0023 12.6031 42.9901C12.596 42.9779 12.5923 42.9641 12.5923 42.95C12.5923 42.9359 12.596 42.922 12.603 42.9098C12.7979 42.5701 12.8549 42.2124 12.7741 41.8369C12.7105 41.5426 12.544 41.3753 12.2744 41.3349C12.0866 41.3069 11.8769 41.2781 11.6906 41.2789C8.56407 41.2834 5.39157 41.2816 2.17314 41.2736C2.16859 41.2736 2.04972 41.2781 1.81651 41.2872C1.60602 41.2958 1.36903 41.2771 1.10554 41.2312C1.04396 41.2201 1.00257 41.2408 0.981366 41.2933C0.803181 40.5916 0.713079 39.8314 0.71106 39.0127C1.42834 39.418 2.17162 39.6583 2.9409 39.7335C3.24881 39.7638 3.98704 39.7789 5.15559 39.7789C8.32254 39.7794 11.5334 39.7817 14.7882 39.7857C15.4598 39.7865 16.1503 39.7547 16.8355 39.7918C17.3974 39.8226 17.6725 40.1073 17.6609 40.6459C17.6588 40.7352 17.6601 40.8261 17.6646 40.9185C17.6677 40.977 17.651 41.0202 17.6147 41.0479C17.3557 41.0767 17.0958 41.0901 16.8348 41.0881C16.2578 41.084 15.671 41.0865 15.0744 41.0956C14.9861 41.0971 14.903 41.1098 14.8253 41.1335C14.8006 41.1416 14.7841 41.158 14.7761 41.1827C14.6655 41.5219 15.2637 41.7127 15.5143 41.7218C16.3023 41.7496 17.0758 41.7526 17.835 41.7309C18.3272 41.7165 18.8428 41.5446 19.3137 41.3909C19.581 41.3031 19.8649 41.2713 20.1398 41.3516C20.6418 41.4984 21.1279 41.687 21.6556 41.7354C22.1962 41.7849 22.751 41.7953 23.3199 41.7665C23.9438 41.7339 24.4465 41.5605 25.0212 41.3705C25.2261 41.3023 25.423 41.2922 25.6118 41.3402C26.1259 41.4697 26.6112 41.6749 27.1564 41.7324C27.7349 41.7935 28.3161 41.8011 28.9001 41.7551C29.4703 41.7104 29.9518 41.509 30.4909 41.3417C30.6656 41.2877 30.8337 41.2786 30.9952 41.3145C31.6206 41.4553 32.2248 41.7006 32.8873 41.7294C33.5663 41.7587 34.2242 41.7576 34.8613 41.7263C34.9461 41.7218 35.0286 41.7041 35.1089 41.6733C35.3867 41.5658 35.314 41.2221 35.0702 41.135C34.9647 41.0971 34.8608 41.079 34.7583 41.0805C34.2283 41.0886 33.6738 41.085 33.0948 41.0699C33.0034 41.0674 32.8722 41.0547 32.7011 41.032C32.6753 41.0169 32.667 40.9962 32.6761 40.9699C32.6837 40.9472 32.6809 40.9258 32.6678 40.9056C32.589 40.7844 32.6322 40.4377 32.6541 40.3082C32.6897 40.0985 32.9267 39.9334 33.1304 39.8933C33.4792 39.8231 33.8338 39.788 34.1942 39.788C37.9164 39.7845 41.6262 39.7832 45.3237 39.7842C46.2525 39.7847 47.1396 39.5939 47.9851 39.2118C48.0376 39.1881 48.1366 39.1207 48.2819 39.0097Z" fill="#0069EA"/>
<path d="M32.7011 41.032C32.8722 41.0547 33.0034 41.0674 33.0948 41.0699C33.6738 41.085 34.2283 41.0886 34.7583 41.0805C34.8608 41.079 34.9647 41.0971 35.0702 41.135C35.314 41.2221 35.3867 41.5658 35.1089 41.6733C35.0286 41.7041 34.9461 41.7218 34.8613 41.7263C34.2242 41.7576 33.5663 41.7587 32.8873 41.7294C32.2248 41.7006 31.6206 41.4553 30.9952 41.3145C30.8337 41.2786 30.6656 41.2877 30.4909 41.3417C29.9518 41.509 29.4703 41.7104 28.9001 41.7551C28.3161 41.8011 27.7349 41.7935 27.1564 41.7324C26.6112 41.6749 26.1259 41.4697 25.6118 41.3402C25.423 41.2922 25.2261 41.3023 25.0212 41.3705C24.4465 41.5605 23.9438 41.7339 23.3199 41.7665C22.751 41.7953 22.1962 41.7849 21.6556 41.7354C21.1279 41.687 20.6418 41.4984 20.1398 41.3516C19.8649 41.2713 19.581 41.3031 19.3137 41.3909C18.8428 41.5446 18.3272 41.7165 17.835 41.7309C17.0758 41.7526 16.3023 41.7496 15.5143 41.7218C15.2637 41.7127 14.6655 41.5219 14.7761 41.1827C14.7841 41.158 14.8006 41.1416 14.8253 41.1335C14.903 41.1098 14.9861 41.0971 15.0744 41.0956C15.671 41.0865 16.2578 41.084 16.8348 41.0881C17.0958 41.0901 17.3557 41.0767 17.6147 41.0479C18.1492 41.0653 18.6792 40.8685 19.2017 40.6777C19.4541 40.5858 19.7087 40.5497 19.9656 40.5694C20.4563 40.6073 21.0431 40.9548 21.486 41.0086C22.2886 41.105 23.0271 41.1009 23.7015 40.9964C24.0346 40.9445 24.3915 40.8382 24.7721 40.6777C25.6163 40.3203 26.2054 40.8844 27.0141 40.9995C27.803 41.1115 28.5289 41.106 29.1916 40.9828C29.5021 40.9248 29.8797 40.8137 30.3244 40.6497C31.1989 40.3279 31.869 41.054 32.7011 41.032Z" fill="white"/>
<path d="M48.0268 41.3114C47.9203 41.7506 47.7847 42.163 47.6202 42.5486C47.5858 42.4961 47.5636 42.4421 47.5535 42.3866C47.546 42.3442 47.5291 42.3386 47.5028 42.3699C47.4912 42.3841 47.4786 42.3853 47.4649 42.3737C47.422 42.3374 47.3887 42.3449 47.365 42.3964C47.3155 42.5055 47.2754 42.6246 47.2446 42.7538C47.2387 42.7786 47.2261 42.8014 47.2083 42.8197C47.1528 42.8777 47.1114 42.9456 47.0841 43.0234C47.0392 43.1521 47.0117 43.2233 47.0016 43.2369C46.9526 43.3005 46.8867 43.3348 46.8039 43.3399C46.6475 43.3489 46.4882 43.3363 46.3262 43.302C46.1944 43.2737 46.0523 43.2583 45.8999 43.2558C45.4784 43.2477 45.0542 43.2414 44.6271 43.2369C44.5282 43.2359 44.4255 43.2429 44.3189 43.2581C44.2215 43.2717 44.1186 43.2818 44.01 43.2884C43.8821 43.2959 43.7958 43.3641 43.667 43.3527C43.5787 43.3452 43.4916 43.3578 43.4058 43.3906C43.2705 43.4431 43.1335 43.4867 42.9947 43.5216C42.9447 43.5342 42.894 43.5372 42.8425 43.5307C42.8198 43.5276 42.8008 43.5347 42.7857 43.5519C42.7246 43.62 42.6969 43.7008 42.7024 43.7942C42.7044 43.8211 42.6972 43.848 42.682 43.8706C42.6381 43.9362 42.5977 44.0059 42.5608 44.0796C42.3541 44.493 41.6553 44.6172 41.2532 44.6089C40.5001 44.5922 39.7644 44.5854 39.0461 44.5884C38.88 44.5889 38.5852 44.596 38.1617 44.6096C37.8674 44.6192 37.5724 44.6237 37.2766 44.6232C37.0853 44.6227 36.7208 44.6333 36.1833 44.655C35.8037 44.6707 35.4203 44.6621 35.0331 44.6293C34.9498 44.5687 34.8653 44.5359 34.7795 44.5309C34.5569 44.5172 34.2035 44.515 33.7195 44.5241C33.5524 44.5276 33.4194 44.5503 33.3204 44.5922C33.2326 44.5581 33.1281 44.54 33.0456 44.596C32.901 44.6921 32.6201 44.6513 32.4361 44.6384C32.3013 44.6298 32.1489 44.6263 31.9788 44.6278C31.7324 44.6303 31.4871 44.6144 31.2428 44.5801C31.159 44.2974 31.0013 44.1821 30.7696 44.2341C30.551 44.2835 30.3266 44.334 30.0965 44.3855C28.7962 44.6773 27.5438 44.6692 26.3394 44.3613C25.7201 44.203 25.2166 44.1053 24.6396 44.2325C24.183 44.3333 23.7287 44.4688 23.2525 44.5286C22.2106 44.6588 21.2271 44.5998 20.2254 44.3113C19.7847 44.1848 19.3334 44.1538 18.8965 44.2484C18.4059 44.3552 17.9281 44.5051 17.4178 44.5309C16.8868 44.5581 16.2318 44.5576 15.453 44.5294C15.3364 44.5253 15.2364 44.5687 15.1531 44.6596C15.0658 44.6212 14.9755 44.6089 14.8821 44.6225C14.7327 44.6442 14.6451 44.6548 14.6193 44.6543C14.3309 44.6452 14.0416 44.6081 13.7622 44.6142C12.2015 44.6455 10.6018 44.6369 8.96335 44.5884C8.3869 44.5718 7.16055 44.5892 5.28431 44.6407C4.7119 44.6566 4.12207 44.6172 3.56328 44.6672C3.32301 44.6889 3.12994 44.6303 2.98406 44.4915C2.96437 44.4728 2.9409 44.4625 2.91364 44.4605C2.86871 44.4574 2.82757 44.4418 2.79022 44.4135C2.58932 44.2616 2.4442 44.0869 2.35485 43.8896C2.32053 43.8138 2.26122 43.7475 2.17692 43.6904C2.132 43.6601 2.0848 43.65 2.03533 43.6601C2.00151 43.6677 1.97855 43.6553 1.96643 43.623C1.93514 43.5392 1.90333 43.5125 1.87103 43.5428C1.4763 42.8452 1.17974 42.0953 0.981366 41.2933C1.00257 41.2408 1.04396 41.2201 1.10554 41.2312C1.36903 41.2771 1.60602 41.2958 1.81651 41.2872C2.04972 41.2781 2.16859 41.2736 2.17314 41.2736C5.39157 41.2816 8.56407 41.2834 11.6906 41.2789C11.8769 41.2781 12.0866 41.3069 12.2744 41.3349C12.544 41.3753 12.7105 41.5426 12.7741 41.8369C12.8549 42.2124 12.7979 42.5701 12.603 42.9098C12.596 42.922 12.5923 42.9359 12.5923 42.95C12.5923 42.9641 12.596 42.9779 12.6031 42.9901C12.6101 43.0023 12.6203 43.0125 12.6325 43.0195C12.6447 43.0265 12.6586 43.0302 12.6727 43.0302C13.1807 43.0309 13.6668 43.0567 14.1734 43.0529C15.1223 43.0473 16.0721 43.0463 17.0226 43.0499C17.4254 43.0514 17.8777 43.0413 18.3794 43.0196C18.5313 43.013 18.6876 42.9966 18.8481 42.9704C19.341 42.8901 19.8536 43.0135 20.3041 43.0309C21.2026 43.0648 22.1314 43.0741 23.0904 43.059C23.7053 43.0491 24.3216 43.0764 24.8463 42.8015C25.0699 42.6844 25.2915 42.5564 25.5111 42.4176C25.5833 42.3727 25.6567 42.3707 25.7314 42.4116C25.9606 42.5373 26.1852 42.6594 26.4053 42.778C26.8255 43.0052 27.326 43.0499 27.8106 43.0552C28.7472 43.0665 29.7421 43.0801 30.7022 43.0181C31.005 42.9984 31.2754 42.85 31.5797 42.8144C31.8864 42.778 32.1597 42.8977 32.4482 42.9673C32.7031 43.0284 32.987 43.0584 33.3 43.0574C34.7543 43.0529 36.1936 43.0484 37.6181 43.0438C37.7317 43.0438 37.8462 43.0357 37.9618 43.0196C37.974 43.018 37.9856 43.0133 37.9955 43.0059C38.0053 42.9985 38.0131 42.9888 38.0182 42.9775C38.0233 42.9662 38.0254 42.9538 38.0244 42.9415C38.0234 42.9291 38.0194 42.9172 38.0126 42.9068C37.8026 42.5842 37.743 42.2425 37.8339 41.8816C37.9724 41.3288 38.4472 41.2872 38.9257 41.2872C41.7721 41.2892 44.6299 41.2912 47.499 41.2933C47.6747 41.2933 47.8458 41.3145 48.0268 41.3114Z" fill="#002E7D"/>
<path d="M47.6202 42.5486C47.3648 43.2195 47.0101 43.8636 46.5564 44.4809C44.9936 46.6062 42.4934 47.9949 39.8313 47.9964C29.4466 48.0009 19.259 48.0012 9.26849 47.9971C8.25389 47.9966 7.24283 47.7915 6.2353 47.3816C4.34745 46.6133 2.89269 45.3337 1.87103 43.5428C1.90333 43.5125 1.93514 43.5392 1.96643 43.623C1.97855 43.6553 2.00151 43.6677 2.03533 43.6601C2.0848 43.65 2.132 43.6601 2.17692 43.6904C2.26122 43.7475 2.32053 43.8138 2.35485 43.8896C2.4442 44.0869 2.58932 44.2616 2.79022 44.4135C2.82757 44.4418 2.86871 44.4574 2.91364 44.4605C2.9409 44.4625 2.96437 44.4728 2.98406 44.4915C3.12994 44.6303 3.32301 44.6889 3.56328 44.6672C4.12207 44.6172 4.7119 44.6566 5.28431 44.6407C7.16055 44.5892 8.3869 44.5718 8.96335 44.5884C10.6018 44.6369 12.2015 44.6455 13.7622 44.6142C14.0416 44.6081 14.3309 44.6452 14.6193 44.6543C14.6451 44.6548 14.7327 44.6442 14.8821 44.6225C14.9755 44.6089 15.0658 44.6212 15.1531 44.6596C15.0479 44.9746 15.2576 45.1215 15.5294 45.1275C16.2563 45.1437 16.9196 45.1477 17.5193 45.1396C17.8241 45.1351 18.1225 45.0985 18.4142 45.0298C18.948 44.9034 19.478 44.8027 20.0005 44.936C20.5199 45.0692 21.0025 45.1525 21.4482 45.1858C22.437 45.2593 23.5122 45.2085 24.4912 44.9435C24.9485 44.8199 25.4089 44.8163 25.8723 44.9329C26.4628 45.0808 27.0305 45.1664 27.5751 45.1896C28.7525 45.2388 29.8511 45.1798 30.9748 44.8602C31.1282 44.8168 31.2176 44.7234 31.2428 44.5801C31.4871 44.6144 31.7324 44.6303 31.9788 44.6278C32.1489 44.6263 32.3013 44.6298 32.4361 44.6384C32.6201 44.6513 32.901 44.6921 33.0456 44.596C33.1281 44.54 33.2326 44.5581 33.3204 44.5922C33.1425 44.8602 33.3008 45.1056 33.6044 45.1162C33.9537 45.1283 34.3441 45.1273 34.7757 45.1131C35.0581 45.104 35.1921 44.9026 35.0331 44.6293C35.4203 44.6621 35.8037 44.6707 36.1833 44.655C36.7208 44.6333 37.0853 44.6227 37.2766 44.6232C37.5724 44.6237 37.8674 44.6192 38.1617 44.6096C38.5852 44.596 38.88 44.5889 39.0461 44.5884C39.7644 44.5854 40.5001 44.5922 41.2532 44.6089C41.6553 44.6172 42.3541 44.493 42.5608 44.0796C42.5977 44.0059 42.6381 43.9362 42.682 43.8706C42.6972 43.848 42.7044 43.8211 42.7024 43.7942C42.6969 43.7008 42.7246 43.62 42.7857 43.5519C42.8008 43.5347 42.8198 43.5276 42.8425 43.5307C42.894 43.5372 42.9447 43.5342 42.9947 43.5216C43.1335 43.4867 43.2705 43.4431 43.4058 43.3906C43.4916 43.3578 43.5787 43.3452 43.667 43.3527C43.7958 43.3641 43.8821 43.2959 44.01 43.2884C44.1186 43.2818 44.2215 43.2717 44.3189 43.2581C44.4255 43.2429 44.5282 43.2359 44.6271 43.2369C45.0542 43.2414 45.4784 43.2477 45.8999 43.2558C46.0523 43.2583 46.1944 43.2737 46.3262 43.302C46.4882 43.3363 46.6475 43.3489 46.8039 43.3399C46.8867 43.3348 46.9526 43.3005 47.0016 43.2369C47.0117 43.2233 47.0392 43.1521 47.0841 43.0234C47.1114 42.9456 47.1528 42.8777 47.2083 42.8197C47.2261 42.8014 47.2387 42.7786 47.2446 42.7538C47.2754 42.6246 47.3155 42.5055 47.365 42.3964C47.3887 42.3449 47.422 42.3374 47.4649 42.3737C47.4786 42.3853 47.4912 42.3841 47.5028 42.3699C47.5291 42.3386 47.546 42.3442 47.5535 42.3866C47.5636 42.4421 47.5858 42.4961 47.6202 42.5486Z" fill="#002056"/>
<path d="M31.2428 44.5801C31.2176 44.7234 31.1282 44.8168 30.9748 44.8602C29.8511 45.1798 28.7525 45.2388 27.5751 45.1896C27.0305 45.1664 26.4628 45.0808 25.8723 44.9329C25.4089 44.8163 24.9485 44.8199 24.4912 44.9435C23.5122 45.2085 22.437 45.2593 21.4482 45.1858C21.0025 45.1525 20.5199 45.0692 20.0005 44.936C19.478 44.8027 18.948 44.9034 18.4142 45.0298C18.1225 45.0985 17.8241 45.1351 17.5193 45.1396C16.9196 45.1477 16.2563 45.1437 15.5294 45.1275C15.2576 45.1215 15.0479 44.9746 15.1531 44.6596C15.2364 44.5687 15.3364 44.5253 15.453 44.5294C16.2318 44.5576 16.8868 44.5581 17.4178 44.5309C17.9281 44.5051 18.4059 44.3552 18.8965 44.2484C19.3334 44.1538 19.7847 44.1848 20.2254 44.3113C21.2271 44.5998 22.2106 44.6588 23.2525 44.5286C23.7287 44.4688 24.183 44.3333 24.6396 44.2325C25.2166 44.1053 25.7201 44.203 26.3394 44.3613C27.5438 44.6692 28.7962 44.6773 30.0965 44.3855C30.3266 44.334 30.551 44.2835 30.7696 44.2341C31.0013 44.1821 31.159 44.2974 31.2428 44.5801Z" fill="white"/>
<path d="M35.0331 44.6293C35.1921 44.9026 35.0581 45.104 34.7757 45.1131C34.3441 45.1273 33.9537 45.1283 33.6044 45.1162C33.3008 45.1056 33.1425 44.8602 33.3204 44.5922C33.4194 44.5503 33.5524 44.5276 33.7195 44.5241C34.2035 44.515 34.5569 44.5172 34.7795 44.5309C34.8653 44.5359 34.9498 44.5687 35.0331 44.6293Z" fill="white"/>
</svg>
